<?xml version="1.0" encoding="UTF-8" standalone="no"?>
<svg
   xmlns:dc="http://purl.org/dc/elements/1.1/"
   xmlns:cc="http://creativecommons.org/ns#"
   xmlns:rdf="http://www.w3.org/1999/02/22-rdf-syntax-ns#"
   xmlns:svg="http://www.w3.org/2000/svg"
   xmlns="http://www.w3.org/2000/svg"
   xmlns:sodipodi="http://sodipodi.sourceforge.net/DTD/sodipodi-0.dtd"
   xmlns:inkscape="http://www.inkscape.org/namespaces/inkscape"
   version="1.1"
   id="Capa_1"
   x="0px"
   y="0px"
   viewBox="0 0 490 490"
   style="enable-background:new 0 0 490 490;"
   xml:space="preserve"
   sodipodi:docname="analytics.svg"
   inkscape:version="1.0 (4035a4fb49, 2020-05-01)"><metadata
   id="metadata51"><rdf:RDF><cc:Work
       rdf:about=""><dc:format>image/svg+xml</dc:format><dc:type
         rdf:resource="http://purl.org/dc/dcmitype/StillImage" /></cc:Work></rdf:RDF></metadata><defs
   id="defs49" /><sodipodi:namedview
   inkscape:document-rotation="0"
   pagecolor="#ffffff"
   bordercolor="#666666"
   borderopacity="1"
   objecttolerance="10"
   gridtolerance="10"
   guidetolerance="10"
   inkscape:pageopacity="0"
   inkscape:pageshadow="2"
   inkscape:window-width="776"
   inkscape:window-height="480"
   id="namedview47"
   showgrid="false"
   inkscape:zoom="0.17245559"
   inkscape:cx="245"
   inkscape:cy="245"
   inkscape:window-x="0"
   inkscape:window-y="0"
   inkscape:window-maximized="0"
   inkscape:current-layer="Capa_1" />
<g
   style="fill:#ffffff"
   id="g14">
	<path
   style="fill:#ffffff"
   d="M84.765,454.31h66.17V280.967h-66.17V454.31z M100.077,296.28h35.545v142.717h-35.545V296.28z"
   id="path2" />
	<path
   style="fill:#ffffff"
   d="M66.17,345.589H0v108.72h66.17V345.589z M50.857,438.997H15.313v-78.095h35.545V438.997z"
   id="path4" />
	<path
   style="fill:#ffffff"
   d="M169.529,454.31h66.17V193.16h-66.17V454.31z M184.842,208.472h35.545v230.525h-35.545V208.472z"
   id="path6" />
	<path
   style="fill:#ffffff"
   d="M254.294,454.31h66.17V35.13h-66.17V454.31z M269.606,50.442h35.545v388.555h-35.545V50.442z"
   id="path8" />
	<path
   style="fill:#ffffff"
   d="M405.235,454.31V116.612h-66.177V454.31H405.235z M354.371,131.924h35.552v307.073h-35.552V131.924z"
   id="path10" />
	<path
   style="fill:#ffffff"
   d="M423.823,454.87H490V246.409h-66.177V454.87z M439.135,261.722h35.552v177.836h-35.552V261.722z"
   id="path12" />
</g>
<g
   id="g16">
</g>
<g
   id="g18">
</g>
<g
   id="g20">
</g>
<g
   id="g22">
</g>
<g
   id="g24">
</g>
<g
   id="g26">
</g>
<g
   id="g28">
</g>
<g
   id="g30">
</g>
<g
   id="g32">
</g>
<g
   id="g34">
</g>
<g
   id="g36">
</g>
<g
   id="g38">
</g>
<g
   id="g40">
</g>
<g
   id="g42">
</g>
<g
   id="g44">
</g>
</svg>
